<svg id="visual" viewBox="0 0 900 600" width="900" height="600" xmlns="http://www.w3.org/2000/svg" xmlns:xlink="http://www.w3.org/1999/xlink" version="1.1"><rect x="0" y="0" width="900" height="600" fill="#cbdbe2"></rect><path d="M0 427L13.7 434.2C27.3 441.3 54.7 455.7 82 462.5C109.3 469.3 136.7 468.7 163.8 474C191 479.3 218 490.7 245.2 487C272.3 483.3 299.7 464.7 327 457.3C354.3 450 381.7 454 409 455.2C436.3 456.3 463.7 454.7 491 456.8C518.3 459 545.7 465 573 462C600.3 459 627.7 447 654.8 448.7C682 450.3 709 465.7 736.2 476.5C763.3 487.3 790.7 493.7 818 491.8C845.3 490 872.7 480 886.3 475L900 470L900 601L886.3 601C872.7 601 845.3 601 818 601C790.7 601 763.3 601 736.2 601C709 601 682 601 654.8 601C627.7 601 600.3 601 573 601C545.7 601 518.3 601 491 601C463.7 601 436.3 601 409 601C381.7 601 354.3 601 327 601C299.7 601 272.3 601 245.2 601C218 601 191 601 163.8 601C136.7 601 109.3 601 82 601C54.7 601 27.3 601 13.7 601L0 601Z" fill="#FFFFFF" stroke-linecap="round" stroke-linejoin="miter"></path></svg>